<svg xmlns="http://www.w3.org/2000/svg" width="83" height="60" viewBox="0 0 83 60">
  <metadata><?xpacket begin="﻿" id="W5M0MpCehiHzreSzNTczkc9d"?>
<x:xmpmeta xmlns:x="adobe:ns:meta/" x:xmptk="Adobe XMP Core 5.6-c138 79.159824, 2016/09/14-01:09:01        ">
   <rdf:RDF xmlns:rdf="http://www.w3.org/1999/02/22-rdf-syntax-ns#">
      <rdf:Description rdf:about=""/>
   </rdf:RDF>
</x:xmpmeta>
                                                                                                    
                                                                                                    
                                                                                                    
                                                                                                    
                                                                                                    
                                                                                                    
                                                                                                    
                                                                                                    
                                                                                                    
                                                                                                    
                                                                                                    
                                                                                                    
                                                                                                    
                                                                                                    
                                                                                                    
                                                                                                    
                                                                                                    
                                                                                                    
                                                                                                    
                                                                                                    
                           
<?xpacket end="w"?></metadata>
<defs>
    <style>
      .cls-1 {
        fill: #6345fe;
        fill-rule: evenodd;
      }
    </style>
  </defs>
  <path class="cls-1" d="M517.194,3962.18h-5.225l1.574-17.87c0-.04,0-0.07,0-0.1v-0.01h0a1.2,1.2,0,0,0-.733-1.1s-0.007,0-.011-0.01l-0.083-.03a0.038,0.038,0,0,1-.031-0.01,0.2,0.2,0,0,1-.071-0.02,0.088,0.088,0,0,1-.049-0.01,0.141,0.141,0,0,1-.063-0.01h-0.059c0-.01-0.006-0.01-0.01-0.01H487.449a1.2,1.2,0,1,0,0,2.4h23.557l-2.42,27.48h0l-0.61,6.94H465.728l0.706-7.22h8.044a1.2,1.2,0,1,0,0-2.4H466.67l1.492-15.23h12.8a1.205,1.205,0,1,0,0-2.41H468.4l0.7-7.16h13.487a1.2,1.2,0,1,0,0-2.4H467.994a1.216,1.216,0,0,0-1.186.95,0.038,0.038,0,0,0,0,.01c-0.007.03-.011,0.06-0.015,0.09,0,0.01,0,.02,0,0.03v0.01l-0.83,8.47H451.216a1.205,1.205,0,1,0,0,2.41h14.5l-1.492,15.23h-4.338a1.2,1.2,0,1,0,0,2.4h4.1l-0.812,8.3h0l-1.257,12.82h0v0.01c0,0.02,0,.03,0,0.05s0,0.04,0,.07h0c0,0.03,0,.06,0,0.09,0,0.01,0,.02,0,0.03,0,0.03.009,0.06,0.014,0.09,0,0.01,0,.02,0,0.03s0.011,0.04.017,0.07c0,0.01.008,0.03,0.013,0.04s0,0.01,0,.02a1.187,1.187,0,0,0,.289.47s0,0,.007.01l0.041,0.03a1.076,1.076,0,0,0,.282.19l0.065,0.03a0.02,0.02,0,0,0,.02.01l0.093,0.03c0,0.01.006,0.01,0.009,0.01a0.411,0.411,0,0,0,.109.02,0.014,0.014,0,0,1,.015.01c0.035,0,.07.01,0.107,0.01h0a0.479,0.479,0,0,0,.119.01h5.414a9.269,9.269,0,0,0,18.349,0h19.5a9.269,9.269,0,0,0,18.35,0h5.416a0.479,0.479,0,0,0,.12-0.01H530.3a0.31,0.31,0,0,0,.094-0.02h0.039a0.2,0.2,0,0,1,.072-0.02c0.016-.01.031-0.01,0.047-0.02s0.039-.01.059-0.02,0.033-.01.049-0.02l0.053-.03a0.1,0.1,0,0,0,.049-0.02l0.049-.03,0.045-.03a0.16,0.16,0,0,0,.049-0.04l0.039-.03c0.017-.01.033-0.03,0.049-0.04l0.033-.03,0.049-.06,0.026-.03,0.05-.06c0-.01.012-0.02,0.017-0.03,0.02-.03.038-0.06,0.055-0.09h0c0.018-.04.035-0.07,0.05-0.11l0.012-.03c0.01-.02.019-0.05,0.027-0.07s0.01-.04.014-0.05,0.011-.04.016-0.06,0.007-.04.01-0.06,0.006-.03.008-0.05c0.052-.4,1-7.96,1.429-12.84,0-.01,0-0.01,0-0.02,0.122-1.4.2-2.59,0.2-3.32A15.735,15.735,0,0,0,517.194,3962.18Zm-5.437,2.41h4.974l-0.635,7.21h-4.974Zm-34.035,36a6.75,6.75,0,1,1,6.826-6.75A6.791,6.791,0,0,1,477.722,4000.59Zm37.851,0a6.75,6.75,0,1,1,6.826-6.75A6.79,6.79,0,0,1,515.573,4000.59Zm13.514-7.95h-4.339a9.269,9.269,0,0,0-18.35,0H486.9a9.269,9.269,0,0,0-18.35,0h-4.076l1.021-10.42h43.72a0.023,0.023,0,0,1,.022-0.01c0.032,0,.063-0.01.1-0.01a0.057,0.057,0,0,1,.039-0.01c0.025-.01.049-0.01,0.073-0.02s0.031-.01.047-0.02a0.146,0.146,0,0,0,.061-0.02c0.017-.01.033-0.01,0.05-0.02l0.053-.03a0.1,0.1,0,0,0,.049-0.02l0.05-.03,0.045-.03a0.182,0.182,0,0,1,.047-0.04l0.042-.03a0.162,0.162,0,0,1,.045-0.04,0.144,0.144,0,0,1,.036-0.04,0.2,0.2,0,0,0,.043-0.05l0.032-.03,0.039-.06a0.137,0.137,0,0,0,.028-0.04,0.188,0.188,0,0,0,.034-0.05,0.166,0.166,0,0,1,.024-0.04c0.01-.02.019-0.04,0.028-0.06s0.015-.03.021-0.05,0.015-.04.022-0.06a0.22,0.22,0,0,0,.017-0.05,0.465,0.465,0,0,1,.015-0.05c0-.02.01-0.04,0.014-0.06s0.006-.04.008-0.06,0.007-.04.009-0.06a0.016,0.016,0,0,0,0-.01l0.609-6.91h6.284c3.725,0,5.405,1.9,7.184,3.93,1.467,1.66,3.106,3.52,5.891,3.98C529.915,3985.82,529.343,3990.56,529.087,3992.64Zm1.39-12.93c-1.807-.37-2.919-1.62-4.265-3.15-1.685-1.92-3.741-4.25-7.682-4.69l0.629-7.14a13.291,13.291,0,0,1,11.409,13.08C530.568,3978.26,530.534,3978.92,530.477,3979.71Zm-52.755,9.73a4.405,4.405,0,1,0,4.458,4.4A4.432,4.432,0,0,0,477.722,3989.44Zm0,6.41a2.005,2.005,0,1,1,2.026-2.01A2.019,2.019,0,0,1,477.722,3995.85Zm37.851-6.41a4.405,4.405,0,1,0,4.458,4.4A4.432,4.432,0,0,0,515.573,3989.44Zm0,6.41a2.005,2.005,0,1,1,2.026-2.01A2.019,2.019,0,0,1,515.573,3995.85Zm-54.063-33.67h-5.944a1.205,1.205,0,1,0,0,2.41h5.944A1.205,1.205,0,1,0,461.51,3962.18Z" transform="translate(-450 -3943)"/>
</svg>
