<svg xmlns="http://www.w3.org/2000/svg" width="60" height="60" viewBox="0 0 60 60">
  <metadata><?xpacket begin="﻿" id="W5M0MpCehiHzreSzNTczkc9d"?>
<x:xmpmeta xmlns:x="adobe:ns:meta/" x:xmptk="Adobe XMP Core 5.6-c138 79.159824, 2016/09/14-01:09:01        ">
   <rdf:RDF xmlns:rdf="http://www.w3.org/1999/02/22-rdf-syntax-ns#">
      <rdf:Description rdf:about=""/>
   </rdf:RDF>
</x:xmpmeta>
                                                                                                    
                                                                                                    
                                                                                                    
                                                                                                    
                                                                                                    
                                                                                                    
                                                                                                    
                                                                                                    
                                                                                                    
                                                                                                    
                                                                                                    
                                                                                                    
                                                                                                    
                                                                                                    
                                                                                                    
                                                                                                    
                                                                                                    
                                                                                                    
                                                                                                    
                                                                                                    
                           
<?xpacket end="w"?></metadata>
<defs>
    <style>
      .cls-1 {
        fill: #6345fe;
        fill-rule: evenodd;
      }
    </style>
  </defs>
  <path class="cls-1" d="M808.27,3972.07a1.173,1.173,0,1,0,1.658,0A1.175,1.175,0,0,0,808.27,3972.07Zm18.635-26.65c-2.011,1.56-2.559,2.36-9.691,9.42l-4.276-.69,1.962-1.97a3.515,3.515,0,1,0-4.972-4.97l-5.543,5.54L785,3949.6a3.95,3.95,0,0,0-2.953,7.1l19.315,13.99-3.617,3.62a29.388,29.388,0,0,0-3.884,5.07l-9.007-2.65a3.789,3.789,0,0,0-3.225,6.75l7.385,5.11c-1.286,2.84-2.067,4.89-2.1,4.99a1.173,1.173,0,0,0,1.511,1.51c0.1-.04,2.146-0.82,4.983-2.11l5.113,7.39a3.789,3.789,0,0,0,6.748-3.23l-2.648-9a29.31,29.31,0,0,0,5.072-3.89l3.616-3.61,13.987,19.31A3.953,3.953,0,0,0,832.4,3997l-3.155-19.38,5.541-5.55a3.515,3.515,0,0,0-4.972-4.97l-1.962,1.96-0.7-4.27c7.066-7.14,7.856-7.68,9.414-9.69,0,0,0-.01.006-0.01,3.614-4.68,4.46-9.42,2.1-11.77S831.592,3941.81,826.905,3945.42Zm-15.32,3.45a1.17,1.17,0,1,1,1.658,1.65l-3.156,3.16-2.851-.46Zm-28.161,5.93a1.607,1.607,0,0,1-.193-2.44,1.636,1.636,0,0,1,1.4-.45l30.545,4.97-12.129,12.13Zm-0.657,24.55a1.432,1.432,0,0,1,1.429-.37l8.425,2.48q-1.293,2.265-2.6,4.98l-7.056-4.89A1.436,1.436,0,0,1,782.767,3979.35Zm19.889,19.88a1.442,1.442,0,0,1-2.208-.19l-4.885-7.06c1.806-.87,3.473-1.74,4.98-2.6l2.477,8.43A1.428,1.428,0,0,1,802.656,3999.23Zm28.818-30.47a1.173,1.173,0,0,1,1.657,1.66l-4.349,4.34-0.463-2.85Zm-1.386,28.61a1.612,1.612,0,0,1-2.893,1.21l-14.208-19.62,12.129-12.13Zm-24.053-14.77a29.218,29.218,0,0,1-5.609,4.13,86.941,86.941,0,0,1-10.281,5.13,85.638,85.638,0,0,1,5.235-10.47,28.81,28.81,0,0,1,4.026-5.42c28.628-28.57,26.932-27.09,28.669-28.48a5.734,5.734,0,0,1,6.436,6.43C833.118,3955.67,834.574,3953.99,806.035,3982.6Zm30.481-31.76a7.741,7.741,0,0,0-5.36-5.36c1.7-.86,4.552-1.82,5.868-0.51C838.063,3946.01,837.805,3948.3,836.516,3950.84Zm-21.616,14.6-3.314,3.32a1.169,1.169,0,0,0,1.657,1.65l3.314-3.31A1.173,1.173,0,0,0,814.9,3965.44Zm6.63-6.63-3.316,3.32a1.173,1.173,0,0,0,1.658,1.66l3.315-3.32A1.173,1.173,0,1,0,821.53,3958.81Z" transform="translate(-780 -3942)"/>
</svg>
