<svg xmlns="http://www.w3.org/2000/svg" width="49" height="60" viewBox="0 0 49 60">
  <metadata><?xpacket begin="﻿" id="W5M0MpCehiHzreSzNTczkc9d"?>
<x:xmpmeta xmlns:x="adobe:ns:meta/" x:xmptk="Adobe XMP Core 5.6-c138 79.159824, 2016/09/14-01:09:01        ">
   <rdf:RDF xmlns:rdf="http://www.w3.org/1999/02/22-rdf-syntax-ns#">
      <rdf:Description rdf:about=""/>
   </rdf:RDF>
</x:xmpmeta>
                                                                                                    
                                                                                                    
                                                                                                    
                                                                                                    
                                                                                                    
                                                                                                    
                                                                                                    
                                                                                                    
                                                                                                    
                                                                                                    
                                                                                                    
                                                                                                    
                                                                                                    
                                                                                                    
                                                                                                    
                                                                                                    
                                                                                                    
                                                                                                    
                                                                                                    
                                                                                                    
                           
<?xpacket end="w"?></metadata>
<defs>
    <style>
      .cls-1 {
        fill: #6345fe;
        fill-rule: evenodd;
      }
    </style>
  </defs>
  <path class="cls-1" d="M1130.8,3951.69a1.17,1.17,0,1,0,1.17,1.17A1.163,1.163,0,0,0,1130.8,3951.69Zm-18.59,0a1.17,1.17,0,1,0,1.16,1.17A1.163,1.163,0,0,0,1112.21,3951.69Zm33.47,53.33-7.69-8.1a5.851,5.851,0,0,0,5.6-5.86v-34.77a8.311,8.311,0,0,0-1.85-5.21,8.159,8.159,0,0,0-4.7-2.84,64.6,64.6,0,0,0-12.56-1.24h-6.14a62.768,62.768,0,0,0-12.38,1.24,8.2,8.2,0,0,0-6.54,8.04v34.78a5.846,5.846,0,0,0,5.68,5.86l-7.77,8.09a1.172,1.172,0,0,0-.24,1.27,1.151,1.151,0,0,0,1.07.72h8.31a1.17,1.17,0,0,0,.94-0.48l3.53-4.91h21.24l3.52,4.91a1.175,1.175,0,0,0,.95.48h8.19a1.167,1.167,0,0,0,1.07-.71A1.188,1.188,0,0,0,1145.68,4005.02Zm-43.93-13.96v-34.78a5.87,5.87,0,0,1,4.67-5.75,60.757,60.757,0,0,1,11.92-1.19h6.14a62.139,62.139,0,0,1,12.1,1.2,5.812,5.812,0,0,1,3.36,2.03,5.873,5.873,0,0,1,1.32,3.72v34.77a3.5,3.5,0,0,1-3.48,3.52h-32.54A3.506,3.506,0,0,1,1101.75,3991.06Zm4.13,13.6h-4.97l7.43-7.74h3.1Zm6.74-5.39,1.69-2.35h14.5l1.68,2.35h-17.87Zm24.62,5.39-5.56-7.74h3.1l7.34,7.74h-4.88Zm0.54-48.28h-32.54a1.165,1.165,0,0,0-1.17,1.17V3977a1.165,1.165,0,0,0,1.17,1.17h32.54a1.163,1.163,0,0,0,1.16-1.17v-19.45A1.163,1.163,0,0,0,1137.78,3956.38Zm-17.44,19.45H1106.4v-17.11h13.94v17.11Zm16.28,0h-13.95v-17.11h13.95v17.11Zm-10.46-24.14h-9.3a1.17,1.17,0,0,0,0,2.34h9.3A1.17,1.17,0,0,0,1126.16,3951.69Zm8.13,30a4.685,4.685,0,1,0,4.65,4.68A4.673,4.673,0,0,0,1134.29,3981.69Zm0,7.03a2.345,2.345,0,1,1,2.33-2.35A2.335,2.335,0,0,1,1134.29,3988.72Zm-25.57-7.03a4.685,4.685,0,1,0,4.65,4.68A4.673,4.673,0,0,0,1108.72,3981.69Zm0,7.03a2.345,2.345,0,1,1,2.33-2.35A2.335,2.335,0,0,1,1108.72,3988.72Zm17.44-5.86h-9.3a1.17,1.17,0,0,0,0,2.34h9.3A1.17,1.17,0,0,0,1126.16,3982.86Zm0,4.69h-9.3a1.17,1.17,0,0,0,0,2.34h9.3A1.17,1.17,0,0,0,1126.16,3987.55Z" transform="translate(-1097 -3947)"/>
</svg>
