<svg xmlns="http://www.w3.org/2000/svg" width="97" height="60" viewBox="0 0 97 60">
  <metadata><?xpacket begin="﻿" id="W5M0MpCehiHzreSzNTczkc9d"?>
<x:xmpmeta xmlns:x="adobe:ns:meta/" x:xmptk="Adobe XMP Core 5.6-c138 79.159824, 2016/09/14-01:09:01        ">
   <rdf:RDF xmlns:rdf="http://www.w3.org/1999/02/22-rdf-syntax-ns#">
      <rdf:Description rdf:about=""/>
   </rdf:RDF>
</x:xmpmeta>
                                                                                                    
                                                                                                    
                                                                                                    
                                                                                                    
                                                                                                    
                                                                                                    
                                                                                                    
                                                                                                    
                                                                                                    
                                                                                                    
                                                                                                    
                                                                                                    
                                                                                                    
                                                                                                    
                                                                                                    
                                                                                                    
                                                                                                    
                                                                                                    
                                                                                                    
                                                                                                    
                           
<?xpacket end="w"?></metadata>
<defs>
    <style>
      .cls-1 {
        fill: #6345fe;
        fill-rule: evenodd;
      }
    </style>
  </defs>
  <path class="cls-1" d="M1478.89,3979.41a2.355,2.355,0,0,0-1.71-.96h-20.04L1443.63,3963a1.718,1.718,0,0,0-1.18-.53h-16.08a0.409,0.409,0,0,0-.1-0.32l-6.01-11.3a1.665,1.665,0,0,0-1.39-.85h-8.04a1.647,1.647,0,0,0-1.61,1.6v10.76h-6.43a1.829,1.829,0,0,0-1.39.75l-9.11,15.24h-4.72a1.573,1.573,0,0,0-1.6,1.6,30.489,30.489,0,0,0,2.46,12.04,12.647,12.647,0,0,0-4.82-.85,1.6,1.6,0,1,0,0,3.19c3.53,0,5.25,1.28,7.29,2.88,2.14,1.6,4.5,3.52,9.21,3.52h1.5a1.524,1.524,0,0,0,.65-0.22c3.32-.42,5.25-2.02,7.07-3.3,1.93-1.49,3.65-2.88,7.29-2.88,3.54,0,5.25,1.28,7.29,2.88,2.14,1.6,4.5,3.52,9.22,3.52s7.07-1.92,9.21-3.52c1.93-1.49,3.65-2.88,7.29-2.88,3.54,0,5.26,1.28,7.29,2.88,2.15,1.6,4.5,3.52,9.22,3.52a1.6,1.6,0,1,0,0-3.2,8.484,8.484,0,0,1-3-.43l15.43-15.98A1.654,1.654,0,0,0,1478.89,3979.41Zm-58.73-21.74,2.57,4.9h-10.29v-4.9h7.72Zm-7.83-4.37h5.47l0.64,1.17h-6.11v-1.17h0Zm-8.57,12.37h37.94l5.04,5.75h-46.52Zm-5.36,8.95h51.13l3.43,3.83h-56.92Zm61.52,21.1c-0.43-.32-0.85-0.64-1.28-0.96-2.15-1.6-4.51-3.52-9.22-3.52s-7.08,1.92-9.22,3.52c-1.93,1.49-3.64,2.88-7.29,2.88-3.53,0-5.25-1.28-7.29-2.88-2.14-1.6-4.5-3.52-9.21-3.52-4.61,0-7.08,1.92-9.22,3.52-1.82,1.39-3.43,2.66-6.54,2.77a9.944,9.944,0,0,1-6.86-2.98c-3.64-3.73-4.5-10.02-4.72-12.9h84.25Zm6.22,11.08c-3.54,0-5.25-1.28-7.29-2.88-2.14-1.59-4.5-3.51-9.22-3.51s-7.07,1.92-9.21,3.51c-1.93,1.5-3.65,2.88-7.29,2.88-3.54,0-5.26-1.28-7.29-2.88-2.15-1.59-4.5-3.51-9.22-3.51-4.61,0-7.07,1.92-9.22,3.51-1.93,1.5-3.64,2.88-7.29,2.88-3.53,0-5.25-1.28-7.28-2.88-2.15-1.59-4.51-3.51-9.22-3.51a1.6,1.6,0,1,0,0,3.2c3.53,0,5.25,1.27,7.29,2.87a13.333,13.333,0,0,0,9.21,3.52c4.61,0,7.08-1.92,9.22-3.52,1.93-1.49,3.65-2.87,7.29-2.87,3.54,0,5.25,1.27,7.29,2.87,2.14,1.6,4.5,3.52,9.22,3.52s7.07-1.92,9.21-3.52c1.93-1.49,3.65-2.87,7.29-2.87,3.54,0,5.26,1.27,7.29,2.87,2.15,1.6,4.5,3.52,9.22,3.52A1.6,1.6,0,1,0,1466.14,4006.8Z" transform="translate(-1382 -3950)"/>
</svg>
